<?xml version="1.0" encoding="UTF-8" standalone="no"?>
<svg
   xmlns:dc="http://purl.org/dc/elements/1.1/"
   xmlns:cc="http://creativecommons.org/ns#"
   xmlns:rdf="http://www.w3.org/1999/02/22-rdf-syntax-ns#"
   xmlns:svg="http://www.w3.org/2000/svg"
   xmlns="http://www.w3.org/2000/svg"
   viewBox="0 0 748.93915 310.16306"
   height="310.16306"
   width="748.93915"
   xml:space="preserve"
   id="svg2"
   version="1.1"><metadata
     id="metadata8"><rdf:RDF><cc:Work
         rdf:about=""><dc:format>image/svg+xml</dc:format><dc:type
           rdf:resource="http://purl.org/dc/dcmitype/StillImage" /></cc:Work></rdf:RDF></metadata><defs
     id="defs6"><clipPath
       id="clipPath22"
       clipPathUnits="userSpaceOnUse"><path
         id="path20"
         d="M 0,0 H 562 V 233 H 0 Z" /></clipPath><clipPath
       id="clipPath34"
       clipPathUnits="userSpaceOnUse"><path
         id="path32"
         d="M 0,0 H 562 V 233 H 0 Z" /></clipPath><clipPath
       id="clipPath46"
       clipPathUnits="userSpaceOnUse"><path
         id="path44"
         d="M 0,0 H 562 V 233 H 0 Z" /></clipPath><clipPath
       id="clipPath56"
       clipPathUnits="userSpaceOnUse"><path
         id="path54"
         d="M 561.836,99.273 279.699,381.41 -6.148,95.562 275.988,-186.574 Z" /></clipPath><clipPath
       id="clipPath66"
       clipPathUnits="userSpaceOnUse"><path
         id="path64"
         d="M 0,0 H 562 V 233 H 0 Z" /></clipPath><clipPath
       id="clipPath76"
       clipPathUnits="userSpaceOnUse"><path
         id="path74"
         d="M 279.797,381.312 561.934,99.176 276.086,-186.672 -6.051,95.465 Z" /></clipPath><clipPath
       id="clipPath86"
       clipPathUnits="userSpaceOnUse"><path
         id="path84"
         d="M 0,0 H 562 V 233 H 0 Z" /></clipPath><clipPath
       id="clipPath100"
       clipPathUnits="userSpaceOnUse"><path
         id="path98"
         d="M 0,0 H 562 V 233 H 0 Z" /></clipPath></defs><g
     transform="matrix(1.3333333,0,0,1.3333333,0,1.1754076e-5)"
     id="g10"><g
       id="g12"><g
         id="g14"><g
           id="g16"><g
             clip-path="url(#clipPath22)"
             id="g18"><g
               id="g24"><g
                 id="g26"><g
                   id="g28"><g
                     clip-path="url(#clipPath34)"
                     id="g30"><g
                       id="g36"><g
                         id="g38"><g
                           id="g40"><g
                             clip-path="url(#clipPath46)"
                             id="g42"><g
                               id="g48" /><g
                               id="g50"><g
                                 clip-path="url(#clipPath56)"
                                 id="g52"><g
                                   id="g58"><g
                                   id="g60"><g
                                   clip-path="url(#clipPath66)"
                                   id="g62"><g
                                   id="g68" /><g
                                   id="g70"><g
                                   clip-path="url(#clipPath76)"
                                   id="g72"><g
                                   id="g78"><g
                                   id="g80"><g
                                   clip-path="url(#clipPath86)"
                                   id="g82"><g
                                   id="g88"><path
                                   id="path90"
                                   style="fill:#00bf63;fill-opacity:1;fill-rule:nonzero;stroke:none"
                                   d="m 561.703,99.195 c -3.078,-0.375 -5.641,-0.66 -8.199,-0.996 C 534.012,95.648 514.93,91.168 495.977,86.078 481.367,82.152 466.891,77.797 452.484,73.211 439.73,69.148 427.012,64.98 414.395,60.504 399.082,55.074 383.734,49.742 368.449,44.23 350.344,37.699 332.34,30.883 314.207,24.43 291.27,16.27 268.242,8.359 244.281,3.633 227.512,0.324 210.641,-1.191 193.57,1.09 179.914,2.91 167,7.09 154.59,12.949 143.68,18.102 133.395,24.316 123.691,31.48 111.621,40.387 100.883,50.648 91.875,62.695 83.223,74.27 75.957,86.656 69.621,99.621 c -1.016,2.082 -2.078,4.149 -2.605,6.387 -0.426,1.789 -1.309,1.734 -2.688,1.285 -4.449,-1.461 -8.723,-3.348 -13.016,-5.195 -7.839,-3.379 -15.914,-6.149 -23.863,-9.243 -5.515,-2.148 -11.008,-4.347 -16.351,-6.902 -3.91,-1.871 -5.832,-1.207 -7.5,2.805 -1.243,2.984 -2.297,6.062 -3.25,9.156 -0.828,2.672 -0.231,3.734 2.355,4.781 16.992,6.879 34.254,12.989 51.899,17.985 3.886,1.101 7.832,2.011 11.773,2.91 1.074,0.246 1.75,0.703 2.25,1.687 8.047,15.926 18.68,30.032 30.441,43.356 9.164,10.387 19.926,18.82 31.473,26.34 12.684,8.261 26.094,15.117 40.242,20.472 10.789,4.086 21.91,7.129 33.199,9.496 22.489,4.711 45.188,7.641 68.196,7.68 22.988,0.039 45.562,-3.172 67.812,-8.879 16.637,-4.269 32.797,-9.871 48.414,-17.004 12.891,-5.886 25.157,-12.898 37.067,-20.582 15.164,-9.777 29.551,-20.625 43.859,-31.578 10.106,-7.73 20.086,-15.625 30.57,-22.844 9.399,-6.468 19.129,-12.402 29.352,-17.507 10.023,-5.012 20.27,-9.532 30.551,-13.981 0.496,-0.215 0.949,-0.523 1.902,-1.051 z" /></g></g></g></g></g></g></g></g></g></g></g></g></g></g></g></g></g></g><g
                 id="g92"><g
                   id="g94"><g
                     clip-path="url(#clipPath100)"
                     id="g96"><g
                       id="g102"><path
                         id="path104"
                         style="fill:#545454;fill-opacity:1;fill-rule:nonzero;stroke:none"
                         d="m 130.348,149.406 7.754,-1.015 V 90.426 l -7.293,-1.203 V 84.195 H 143.5 c 1.262,0 2.477,-0.031 3.645,-0.093 1.203,-0.094 2.386,-0.168 3.554,-0.231 1.168,-0.094 2.356,-0.168 3.555,-0.23 1.199,-0.094 2.461,-0.141 3.785,-0.141 4.707,0 8.691,0.387 11.953,1.156 3.262,0.77 5.891,1.922 7.891,3.461 2.031,1.539 3.492,3.477 4.383,5.817 0.925,2.304 1.386,5.011 1.386,8.121 0,2.121 -0.308,4.215 -0.922,6.277 -0.585,2.059 -1.48,3.984 -2.679,5.77 -1.168,1.753 -2.613,3.304 -4.336,4.66 -1.695,1.351 -3.649,2.367 -5.863,3.047 1.324,0.769 2.601,1.937 3.832,3.507 1.261,1.536 2.461,3.262 3.597,5.168 1.172,1.875 2.278,3.828 3.324,5.86 1.047,2.031 2.047,3.91 3,5.633 0.985,1.691 1.907,3.136 2.77,4.335 0.891,1.172 1.738,1.848 2.539,2.032 l 3.598,1.109 v 4.985 h -13.66 c -0.614,0 -1.262,-0.387 -1.938,-1.157 -0.648,-0.769 -1.34,-1.781 -2.078,-3.043 -0.707,-1.293 -1.445,-2.769 -2.215,-4.433 -0.769,-1.66 -1.555,-3.383 -2.351,-5.168 -0.801,-1.785 -1.618,-3.571 -2.45,-5.352 -0.828,-1.816 -1.675,-3.492 -2.535,-5.031 -0.863,-1.539 -1.738,-2.879 -2.633,-4.016 -0.859,-1.168 -1.722,-2.015 -2.586,-2.539 -0.89,0 -1.906,0 -3.043,0 -1.14,0 -2.261,0 -3.371,0 -1.074,-0.031 -2.058,-0.047 -2.953,-0.047 -0.859,-0.031 -1.461,-0.058 -1.801,-0.09 v 24.829 l 9.094,1.015 v 5.032 h -27.644 z m 18.55,-31.246 c 0.524,0.063 1.262,0.11 2.215,0.141 0.957,0 1.957,0 3,0 1.047,0 2.047,0 3,0 0.957,-0.031 1.696,-0.047 2.215,-0.047 1.942,0 3.68,-0.309 5.219,-0.922 1.535,-0.648 2.844,-1.602 3.922,-2.863 1.105,-1.262 1.953,-2.86 2.539,-4.801 0.582,-1.938 0.875,-4.23 0.875,-6.875 0,-2.031 -0.231,-3.891 -0.692,-5.586 -0.461,-1.691 -1.277,-3.152 -2.445,-4.383 -1.141,-1.23 -2.68,-2.183 -4.617,-2.863 -1.938,-0.707 -4.367,-1.059 -7.293,-1.059 -1.137,0 -2.121,0.032 -2.953,0.09 -0.828,0.031 -1.551,0.078 -2.168,0.141 -0.617,0.062 -1.153,0.121 -1.613,0.183 -0.434,0.063 -0.832,0.11 -1.204,0.141 z m 43.258,31.246 7.754,-1.109 V 90.469 l -7.617,-1.153 v -5.121 h 48.09 l 1.293,14.629 h -5.953 l -2.86,-8.769 -22.109,-0.598 v 26.074 l 15,-0.277 1.387,-7.66 h 5.953 v 21.875 h -5.953 l -1.34,-8.121 -15.047,-0.235 v 27.602 l 25.383,-1.016 5.218,-11.586 5.907,1.754 -2.723,16.571 h -52.383 z" /><path
                         id="path106"
                         style="fill:#ffffff;fill-opacity:1;fill-rule:nonzero;stroke:none"
                         d="m 278.57,112.531 0.242,11.699 -11.699,0.243 c 0.242,8.617 0.77,17.027 1.586,25.234 l -11.703,1.094 c -0.812,-8.531 -1.34,-17.184 -1.586,-25.961 l -5.605,0.121 -0.243,-11.699 5.606,-0.121 c 0,-3.661 0.039,-7.032 0.121,-10.118 0.082,-3.089 0.164,-5.203 0.246,-6.339 0.16,-2.68 0.61,-5.079 1.34,-7.192 0.488,-1.301 1.098,-2.558 1.828,-3.777 0.813,-1.301 1.746,-2.481 2.805,-3.535 1.219,-1.219 2.558,-2.153 4.019,-2.805 1.707,-0.73 3.496,-1.098 5.364,-1.098 1.625,0 3.293,0.328 5,0.977 1.379,0.57 2.679,1.34 3.898,2.316 1.137,0.895 2.195,1.91 3.168,3.047 0.488,0.649 0.895,1.219 1.219,1.707 0.082,0.16 0.246,0.488 0.488,0.973 l 0.246,0.488 0.242,0.367 c 0.571,1.219 1.055,2.356 1.461,3.414 0.407,1.219 0.735,2.477 0.977,3.778 0.242,1.625 0.406,3.898 0.488,6.824 l -11.703,0.121 c -0.078,-2.273 -0.203,-3.898 -0.363,-4.875 -0.246,-1.301 -0.692,-2.641 -1.344,-4.019 l -0.121,-0.247 -0.121,-0.242 c -0.164,-0.164 -0.242,-0.285 -0.242,-0.367 -0.082,-0.082 -0.204,-0.285 -0.368,-0.609 -0.406,-0.407 -0.812,-0.77 -1.218,-1.098 -0.649,-0.566 -1.258,-0.852 -1.828,-0.852 -0.165,0 -0.325,0.04 -0.489,0.122 -0.242,0.082 -0.488,0.246 -0.73,0.488 -0.649,0.648 -1.18,1.586 -1.586,2.805 -0.406,1.136 -0.649,2.558 -0.731,4.265 -0.082,0.895 -0.164,2.762 -0.242,5.606 -0.082,2.925 -0.125,6.093 -0.125,9.507 z m 38.637,-9.875 0.609,11.703 c -2.273,0.161 -4.429,0.61 -6.461,1.34 -0.972,0.406 -1.91,0.895 -2.8,1.461 -0.407,0.246 -0.856,0.528 -1.344,0.856 l -0.484,0.488 -0.61,0.484 c -1.625,1.465 -2.847,3.09 -3.66,4.875 -0.812,1.789 -1.219,3.699 -1.219,5.731 h -0.121 c 0.246,6.906 0.528,13.203 0.856,18.894 l -11.703,0.61 c -0.813,-15.196 -1.383,-30.434 -1.708,-45.711 l 11.704,-0.242 c 0,0.648 0,1.664 0,3.046 0.082,1.383 0.121,2.153 0.121,2.317 0.73,-0.57 1.383,-1.016 1.949,-1.34 1.547,-0.895 3.129,-1.668 4.754,-2.316 3.168,-1.219 6.543,-1.954 10.117,-2.196 z m 28.645,32.301 c 0.16,-0.488 0.242,-0.895 0.242,-1.219 l 11.699,0.61 c -0.078,1.461 -0.406,2.964 -0.973,4.507 -0.488,1.383 -1.097,2.684 -1.828,3.903 -0.894,1.301 -1.871,2.437 -2.926,3.414 -1.3,1.219 -2.683,2.113 -4.144,2.68 -0.164,0.082 -0.367,0.164 -0.61,0.246 l -0.488,0.121 -0.851,0.363 c -0.082,0 -0.203,0.043 -0.368,0.125 l -0.73,0.242 -0.977,0.121 c -1.136,0.246 -2.558,0.407 -4.265,0.489 -2.844,-0.082 -5.606,-0.813 -8.289,-2.196 -2.438,-1.297 -4.59,-3.047 -6.457,-5.238 -1.789,-2.195 -3.09,-4.594 -3.903,-7.191 -0.164,-0.407 -0.324,-1.141 -0.488,-2.196 l -0.121,-0.488 c 0,-0.082 -0.039,-0.203 -0.121,-0.363 0,-0.082 0,-0.125 0,-0.125 -0.082,-0.567 -0.121,-0.852 -0.121,-0.852 -0.082,-1.137 -0.125,-2.355 -0.125,-3.656 0,-2.438 0.285,-4.836 0.855,-7.192 0.489,-2.277 1.219,-4.55 2.196,-6.828 1.218,-2.679 2.718,-4.914 4.507,-6.703 1.055,-1.054 2.196,-1.949 3.414,-2.679 1.301,-0.731 2.68,-1.301 4.145,-1.707 3.168,-0.977 6.215,-1.059 9.141,-0.247 1.543,0.407 3.007,1.098 4.386,2.075 1.219,0.812 2.356,1.789 3.414,2.925 0.407,0.489 0.813,1.016 1.219,1.582 l 0.121,0.247 0.246,0.242 0.243,0.488 c 0.164,0.242 0.367,0.609 0.609,1.098 0.57,1.054 1.098,2.273 1.586,3.656 0.566,1.867 1.094,4.062 1.582,6.582 0.246,1.219 0.406,2.316 0.488,3.293 0.164,1.297 0.246,2.437 0.246,3.41 l -11.703,0.488 c -3.414,0.164 -8.41,0.446 -14.992,0.852 0.082,0.406 0.121,0.691 0.121,0.855 0,0.082 0,0.204 0,0.364 0,0.082 0.043,0.164 0.121,0.246 0,0 0,0.039 0,0.121 0,0.082 0,0.121 0,0.121 v 0.246 c 0.164,0.488 0.246,0.731 0.246,0.731 0.324,1.136 0.895,2.195 1.707,3.168 0.813,0.976 1.746,1.746 2.801,2.316 1.141,0.57 2.195,0.851 3.172,0.851 0.891,-0.078 1.461,-0.16 1.703,-0.242 l 0.488,-0.121 c 0,0 0.043,0 0.121,0 0.164,-0.082 0.247,-0.121 0.247,-0.121 l 0.488,-0.125 0.242,-0.121 c 0.082,0 0.121,0 0.121,0 0.324,-0.16 0.609,-0.363 0.856,-0.609 0.324,-0.325 0.648,-0.692 0.972,-1.098 0.246,-0.484 0.488,-0.973 0.735,-1.461 z m -9.997,-19.137 c -0.812,0.813 -1.503,1.91 -2.074,3.293 -0.078,0.078 -0.16,0.282 -0.242,0.61 4.551,-0.328 8.371,-0.571 11.457,-0.735 l -0.121,-0.121 c -0.242,-0.73 -0.488,-1.34 -0.73,-1.828 -0.083,-0.242 -0.125,-0.367 -0.125,-0.367 0,0 -0.04,0 -0.122,0 0,-0.078 0,-0.121 0,-0.121 l -0.121,-0.121 c -0.164,-0.325 -0.367,-0.571 -0.609,-0.731 -0.648,-0.812 -1.34,-1.301 -2.07,-1.465 -0.735,-0.242 -1.625,-0.203 -2.684,0.125 -0.488,0.161 -0.934,0.364 -1.34,0.61 -0.406,0.242 -0.812,0.527 -1.219,0.851 z m 54.848,21.332 v 0.61 c 0.242,1.543 0.203,3.129 -0.121,4.754 -0.324,1.703 -0.977,3.25 -1.949,4.629 -1.871,2.683 -4.391,4.511 -7.559,5.484 -1.383,0.406 -2.844,0.613 -4.386,0.613 -1.465,0 -2.926,-0.164 -4.391,-0.488 -2.844,-0.813 -5.32,-2.359 -7.434,-4.633 -1.707,-2.031 -3.008,-4.387 -3.902,-7.07 l 11.215,-3.414 c 0.324,1.058 0.812,1.91 1.465,2.562 0.484,0.649 1.093,1.055 1.828,1.219 0.406,0.082 0.769,0.121 1.093,0.121 0.407,0 0.774,-0.039 1.098,-0.121 0.57,-0.164 1.016,-0.449 1.34,-0.856 0.082,-0.078 0.125,-0.242 0.125,-0.484 0.078,-0.246 0.078,-0.488 0,-0.734 v -0.242 c -0.082,-0.164 -0.125,-0.286 -0.125,-0.368 0,-0.082 -0.039,-0.121 -0.121,-0.121 0,0 0,-0.039 0,-0.121 -0.082,-0.082 -0.121,-0.121 -0.121,-0.121 0,-0.082 -0.039,-0.125 -0.121,-0.125 0,-0.078 0,-0.121 0,-0.121 l -0.121,-0.121 c -0.082,0 -0.125,0 -0.125,0 -0.161,-0.242 -0.61,-0.609 -1.34,-1.098 -0.567,-0.324 -1.219,-0.691 -1.949,-1.097 l -2.559,-1.34 c -1.059,-0.649 -2.031,-1.258 -2.926,-1.828 l -0.73,-0.61 -0.735,-0.609 c -0.484,-0.406 -0.933,-0.813 -1.34,-1.219 -0.894,-0.812 -1.746,-1.746 -2.558,-2.805 -0.731,-1.136 -1.34,-2.312 -1.828,-3.535 -0.571,-1.297 -0.977,-2.597 -1.219,-3.898 -0.246,-1.543 -0.324,-2.965 -0.246,-4.266 0.164,-1.301 0.449,-2.683 0.855,-4.144 0.973,-3.008 2.723,-5.446 5.243,-7.313 2.437,-1.871 5.238,-2.844 8.41,-2.926 3.086,-0.082 5.929,0.649 8.531,2.192 l 0.852,0.613 c 0.488,0.324 0.812,0.527 0.976,0.609 0.324,0.325 0.61,0.61 0.852,0.852 0.246,0.164 0.531,0.445 0.855,0.852 0.895,0.976 1.664,2.113 2.317,3.414 1.136,2.195 1.906,4.59 2.312,7.191 l -11.578,1.707 c -0.242,-1.301 -0.609,-2.48 -1.098,-3.535 -0.242,-0.406 -0.488,-0.773 -0.73,-1.098 -0.164,-0.082 -0.242,-0.121 -0.242,-0.121 0,-0.082 0,-0.121 0,-0.121 0,0 -0.043,-0.043 -0.125,-0.121 -0.079,0 -0.121,0 -0.121,0 -0.082,-0.082 -0.161,-0.125 -0.243,-0.125 -0.652,-0.406 -1.382,-0.609 -2.195,-0.609 -0.73,0 -1.301,0.203 -1.707,0.609 -0.566,0.406 -0.973,0.977 -1.219,1.707 -0.16,0.488 -0.242,0.895 -0.242,1.219 0,0.324 0.039,0.773 0.121,1.34 0.082,0.41 0.203,0.855 0.367,1.343 0.243,0.489 0.528,0.934 0.852,1.34 0.324,0.571 0.691,1.016 1.098,1.34 0.164,0.164 0.367,0.367 0.609,0.609 l 0.367,0.368 0.363,0.242 c 0.489,0.324 1.098,0.691 1.829,1.097 l 2.437,1.219 c 0.977,0.571 1.871,1.137 2.684,1.707 1.379,0.895 2.437,1.664 3.168,2.317 0.164,0.242 0.285,0.363 0.367,0.363 l 0.363,0.488 c 0.406,0.488 0.652,0.774 0.734,0.856 0.567,0.812 1.016,1.504 1.34,2.07 0.242,0.406 0.567,1.18 0.973,2.316 l 0.246,1.098 z m 41.074,-12.433 c 0.407,2.437 0.61,5.32 0.61,8.652 0,2.113 -0.121,4.754 -0.364,7.926 -0.328,4.547 -0.488,6.988 -0.488,7.312 l -11.703,-0.488 c 0,-0.324 0.164,-2.887 0.488,-7.68 0.242,-2.925 0.368,-5.32 0.368,-7.191 0,-2.52 -0.165,-4.633 -0.489,-6.336 0,-0.164 -0.043,-0.406 -0.121,-0.734 -0.082,-0.325 -0.125,-0.528 -0.125,-0.61 l -0.242,-0.609 c -0.164,-0.406 -0.242,-0.609 -0.242,-0.609 -0.082,-0.161 -0.125,-0.325 -0.125,-0.489 l -0.121,-0.121 v -0.121 l -0.121,-0.242 c -0.082,-0.082 -0.164,-0.203 -0.243,-0.367 -0.082,-0.082 -0.164,-0.121 -0.246,-0.121 0,-0.082 0,-0.121 0,-0.121 -0.082,-0.082 -0.203,-0.165 -0.363,-0.247 -0.082,-0.16 -0.125,-0.242 -0.125,-0.242 -0.078,-0.082 -0.203,-0.164 -0.363,-0.246 -0.082,-0.078 -0.164,-0.121 -0.246,-0.121 -0.078,-0.082 -0.204,-0.121 -0.364,-0.121 l -0.246,-0.121 c -0.078,0 -0.242,0 -0.484,0 -0.164,-0.082 -0.285,-0.121 -0.367,-0.121 -0.082,0 -0.407,0 -0.977,0 -0.078,0 -0.203,0 -0.363,0 h -0.246 l -0.242,0.121 h -0.247 c -0.566,0.16 -1.296,0.445 -2.191,0.851 -0.57,0.247 -1.219,0.653 -1.949,1.219 -0.164,0.164 -0.328,0.285 -0.488,0.367 -0.082,0.082 -0.204,0.203 -0.368,0.364 -0.082,0.164 -0.242,0.449 -0.488,0.855 -0.73,1.055 -1.016,2.113 -0.851,3.168 h -0.122 c 0.243,7.313 0.567,14.301 0.973,20.965 l -11.699,0.73 c -1.301,-23.402 -2.031,-46.843 -2.195,-70.328 h 11.703 c 0.078,10.485 0.281,21.129 0.609,31.934 1.625,-0.731 3.129,-1.219 4.508,-1.461 l 0.609,-0.246 h 0.731 c 0.734,-0.16 1.179,-0.242 1.343,-0.242 1.219,-0.082 2.114,-0.082 2.68,0 0.653,0 1.625,0.164 2.926,0.488 1.301,0.324 2.277,0.648 2.926,0.976 0.57,0.243 1.461,0.813 2.679,1.704 1.059,0.976 1.789,1.668 2.196,2.074 0.57,0.73 0.855,1.137 0.855,1.219 0.242,0.406 0.528,0.812 0.852,1.218 l 0.367,0.61 c 0,0 0.078,0.203 0.242,0.609 l 0.488,1.219 c 0.082,0.082 0.243,0.488 0.489,1.219 l 0.363,1.218 c 0.082,0.243 0.285,1.016 0.609,2.317 z" /></g></g></g></g></g></g></g></g></g></g></svg>