<?xml version="1.0" encoding="UTF-8" standalone="no"?>
<svg
   viewBox="0 0 748.93915 310.16306"
   height="310.16306"
   width="748.93915"
   xml:space="preserve"
   id="svg2"
   version="1.1"
   sodipodi:docname="Re.svg"
   inkscape:version="1.4 (86a8ad7, 2024-10-11)"
   xmlns:inkscape="http://www.inkscape.org/namespaces/inkscape"
   xmlns:sodipodi="http://sodipodi.sourceforge.net/DTD/sodipodi-0.dtd"
   xmlns="http://www.w3.org/2000/svg"
   xmlns:svg="http://www.w3.org/2000/svg"
   xmlns:rdf="http://www.w3.org/1999/02/22-rdf-syntax-ns#"
   xmlns:cc="http://creativecommons.org/ns#"
   xmlns:dc="http://purl.org/dc/elements/1.1/"><sodipodi:namedview
     id="namedview1"
     pagecolor="#ffffff"
     bordercolor="#000000"
     borderopacity="0.25"
     inkscape:showpageshadow="2"
     inkscape:pageopacity="0.0"
     inkscape:pagecheckerboard="0"
     inkscape:deskcolor="#d1d1d1"
     inkscape:zoom="1.0122103"
     inkscape:cx="429.75259"
     inkscape:cy="210.92455"
     inkscape:window-width="1920"
     inkscape:window-height="991"
     inkscape:window-x="-9"
     inkscape:window-y="-9"
     inkscape:window-maximized="1"
     inkscape:current-layer="svg2" /><metadata
     id="metadata8"><rdf:RDF><cc:Work
         rdf:about=""><dc:format>image/svg+xml</dc:format><dc:type
           rdf:resource="http://purl.org/dc/dcmitype/StillImage" /></cc:Work></rdf:RDF></metadata><defs
     id="defs6"><clipPath
       id="clipPath14"
       clipPathUnits="userSpaceOnUse"><path
         id="path12"
         d="M 0,7.920007 H 1440 V 817.92 H 0 Z" /></clipPath><clipPath
       id="clipPath24"
       clipPathUnits="userSpaceOnUse"><path
         style="clip-rule:evenodd"
         id="path22"
         d="M 0,0 H 6000 V 3406.25 H 0 Z" /></clipPath><clipPath
       id="clipPath36"
       clipPathUnits="userSpaceOnUse"><path
         id="path34"
         d="M 0,0 H 6000 V 3406.25 H 0 Z" /></clipPath><clipPath
       id="clipPath42"
       clipPathUnits="userSpaceOnUse"><path
         id="path40"
         d="M 0,0 H 6000 V 3375 H 0 Z" /></clipPath><clipPath
       id="clipPath48"
       clipPathUnits="userSpaceOnUse"><path
         id="path46"
         d="M 4181.1831,1692.8643 3005.6182,2868.4292 1814.585,1677.3964 2990.1501,501.8313 Z" /></clipPath><clipPath
       id="clipPath54"
       clipPathUnits="userSpaceOnUse"><path
         id="path52"
         d="M 3006.0322,2868.0151 4181.5972,1692.4501 2990.5645,501.41699 1814.9993,1676.9822 Z" /></clipPath><clipPath
       id="clipPath66"
       clipPathUnits="userSpaceOnUse"><path
         style="clip-rule:evenodd"
         id="path64"
         d="M 0,0 H 6000 V 3375 H 0 Z" /></clipPath></defs><g
     clip-path="url(#clipPath14)"
     transform="matrix(1.3333333,0,0,-1.3333333,-588.86557,681.20954)"
     id="g10"><g
       transform="matrix(0.23999999,0,0,-0.23999999,0,817.91998)"
       id="g16"><g
         id="g30"><g
           clip-path="url(#clipPath36)"
           id="g32"><g
             clip-path="url(#clipPath42)"
             id="g38"><g
               clip-path="url(#clipPath48)"
               id="g44"><g
                 clip-path="url(#clipPath54)"
                 id="g50"><g
                   transform="matrix(2.3735621,-2.3735621,-2.3735621,-2.3735621,3007.0156,2866.1504)"
                   id="g56"><path
                     id="path58"
                     style="fill:#00bf63;fill-opacity:1;fill-rule:nonzero;stroke:none"
                     d="m 494.457,0 c -2.37601,3.0280001 -4.37399,5.5310001 -6.32599,8.0710001 C 473.26202,27.416 460.44702,48.098 448.27802,69.205002 438.901,85.469002 430.01703,102 421.397,118.672 c -7.63,14.75799 -15.13299,29.583 -22.27899,44.584 -8.67401,18.207 -17.46799,36.35699 -26.04199,54.611 -10.15799,21.625 -19.979,43.409 -30.232,64.98801 -12.96899,27.29501 -26.23901,54.45001 -43.121,79.629 -11.81698,17.62601 -25.293,33.76099 -42.27701,46.746 -13.585,10.38501 -28.587,18.052 -44.62399,23.802 -14.101,5.055 -28.58099,8.62799 -43.38699,10.858 -18.412,2.77301 -36.845,3.19501 -55.32601,0.52601 -17.750995,-2.56299 -35.000995,-7.06101 -51.939995,-12.88001 -2.717998,-0.93399 -5.465,-1.81601 -7.893001,-3.31399 -1.945,-1.20099 -2.673,-0.378 -3.486,1.229 -2.624001,5.186 -4.721001,10.59299 -6.864998,15.98199 -3.917,9.84601 -8.571999,19.36499 -12.833,29.05701 -2.957001,6.72601 -5.845001,13.479 -8.293,20.414 -1.791999,5.07401 -4.062,6.17801 -9.043999,4.12 -3.712,-1.53299 -7.338,-3.306 -10.891,-5.18201 -3.07100008,-1.62201 -3.48099992,-3.07999 -2.13100002,-6.26599 8.87700032,-20.953 18.66699902,-41.466 29.76700002,-61.33899 2.445999,-4.379 5.111,-8.638 7.778,-12.888 0.727001,-1.15799 0.923,-2.155 0.494999,-3.457 -6.914,-21.04102 -9.96,-42.75299 -11.334,-64.77399 -1.070999,-17.15799 0.971001,-34.00699 4.504,-50.742 3.880998,-18.38401 9.638998,-36.17099 17.353002,-53.29001 5.883999,-13.05901 12.973999,-25.487 20.808998,-37.47501 15.600998,-23.873 32.951004,-46.36799 53.111004,-66.597 20.14299,-20.21199 42.777,-37.204999 67.316,-51.724996 18.34801,-10.857002 37.45199,-20.125 57.42,-27.572998 16.47799,-6.146 33.401,-10.756 50.596,-14.468002 21.89402,-4.724998 44.043,-7.833 66.215,-10.781998 15.655,-2.082 31.345,-3.912 46.88101,-6.779998 13.931,-2.571 27.67801,-5.906001 41.13101,-10.393 13.19602,-4.402 26.159,-9.4259998 39.08802,-14.54399979 C 492.48599,0.5 493.155,0.37 494.457,0 Z" /></g></g></g></g></g></g><g
         id="g60"
         inkscape:export-filename="g602.svg"
         inkscape:export-xdpi="154.75732"
         inkscape:export-ydpi="154.75732"><g
           clip-path="url(#clipPath66)"
           id="g62"><g
             transform="matrix(7.7738986,0,0,7.7738986,2364.8562,1510.6884)"
             id="g68"><text
   id="text72"
   style="font-variant:normal;font-weight:normal;font-size:50.66px;font-family:Merriweather;-inkscape-font-specification:Merriweather-Regular;writing-mode:lr-tb;fill:#545454;fill-opacity:1;fill-rule:nonzero;stroke:none"
   transform="translate(0,53)"><tspan
     id="tspan70"
     y="0"
     x="0 33.128757">RE</tspan></text>
</g><g
             transform="matrix(7.7738986,0,0,7.7738986,2466.1736,1377.4956)"
             id="g74"><text
   id="text78"
   style="font-variant:normal;font-weight:normal;font-size:65.33px;font-family:Marykate;-inkscape-font-specification:Marykate;writing-mode:lr-tb;fill:#ffffff;fill-opacity:1;fill-rule:nonzero;stroke:none"
   transform="translate(50.625,74)"><tspan
     id="tspan76"
     y="0"
     x="0 20.904747 37.759155 59.578499 77.739471">fresh</tspan></text>
</g></g></g></g></g></svg>
